<mxfile>
    <diagram id="BdHsjS3AGjy2uNAjorTe" name="Page-1">
        <mxGraphModel dx="1553" dy="551" grid="1" gridSize="10" guides="1" tooltips="1" connect="1" arrows="1" fold="1" page="1" pageScale="1" pageWidth="850" pageHeight="1100" background="#FFFFFF" math="0" shadow="0">
            <root>
                <mxCell id="0"/>
                <mxCell id="1" parent="0"/>
                <mxCell id="3" value="Client" style="swimlane;" parent="1" vertex="1">
                    <mxGeometry x="400" y="130" width="540" height="490" as="geometry"/>
                </mxCell>
                <mxCell id="37" style="edgeStyle=orthogonalEdgeStyle;rounded=0;orthogonalLoop=1;jettySize=auto;html=1;entryX=0.25;entryY=1;entryDx=0;entryDy=0;startArrow=none;startFill=0;exitX=0.332;exitY=-0.025;exitDx=0;exitDy=0;exitPerimeter=0;" parent="3" source="32" target="33" edge="1">
                    <mxGeometry relative="1" as="geometry">
                        <Array as="points"/>
                    </mxGeometry>
                </mxCell>
                <mxCell id="46" style="edgeStyle=orthogonalEdgeStyle;rounded=0;orthogonalLoop=1;jettySize=auto;html=1;entryX=0.5;entryY=0;entryDx=0;entryDy=0;startArrow=none;startFill=0;" parent="3" source="32" target="45" edge="1">
                    <mxGeometry relative="1" as="geometry"/>
                </mxCell>
                <mxCell id="32" value="Game Engine&lt;br&gt;(pymunk)" style="rounded=0;whiteSpace=wrap;html=1;" parent="3" vertex="1">
                    <mxGeometry x="80" y="270" width="120" height="80" as="geometry"/>
                </mxCell>
                <mxCell id="36" style="edgeStyle=orthogonalEdgeStyle;rounded=0;orthogonalLoop=1;jettySize=auto;html=1;startArrow=none;startFill=0;" parent="3" source="33" edge="1">
                    <mxGeometry relative="1" as="geometry">
                        <mxPoint x="150" y="270" as="targetPoint"/>
                        <Array as="points">
                            <mxPoint x="150" y="270"/>
                        </Array>
                    </mxGeometry>
                </mxCell>
                <mxCell id="33" value="Net Com(client)" style="shape=process;whiteSpace=wrap;html=1;backgroundOutline=1;" parent="3" vertex="1">
                    <mxGeometry x="100" y="150" width="80" height="60" as="geometry"/>
                </mxCell>
                <mxCell id="38" value="recieve server&lt;br&gt;events" style="text;html=1;align=center;verticalAlign=middle;resizable=0;points=[];autosize=1;strokeColor=none;" parent="3" vertex="1">
                    <mxGeometry x="140" y="220" width="90" height="30" as="geometry"/>
                </mxCell>
                <mxCell id="39" value="emit client&lt;br&gt;events" style="text;html=1;align=center;verticalAlign=middle;resizable=0;points=[];autosize=1;strokeColor=none;" parent="3" vertex="1">
                    <mxGeometry x="50" y="220" width="70" height="30" as="geometry"/>
                </mxCell>
                <mxCell id="42" style="edgeStyle=orthogonalEdgeStyle;rounded=0;orthogonalLoop=1;jettySize=auto;html=1;entryX=0.5;entryY=0;entryDx=0;entryDy=0;startArrow=none;startFill=0;" parent="3" source="40" target="41" edge="1">
                    <mxGeometry relative="1" as="geometry"/>
                </mxCell>
                <mxCell id="40" value="Keyboard" style="rounded=0;whiteSpace=wrap;html=1;" parent="3" vertex="1">
                    <mxGeometry x="260" y="140" width="120" height="30" as="geometry"/>
                </mxCell>
                <mxCell id="43" style="edgeStyle=orthogonalEdgeStyle;rounded=0;orthogonalLoop=1;jettySize=auto;html=1;entryX=1;entryY=0.25;entryDx=0;entryDy=0;startArrow=none;startFill=0;" parent="3" source="41" target="32" edge="1">
                    <mxGeometry relative="1" as="geometry">
                        <Array as="points">
                            <mxPoint x="320" y="290"/>
                        </Array>
                    </mxGeometry>
                </mxCell>
                <mxCell id="41" value="Input manager" style="rounded=0;whiteSpace=wrap;html=1;" parent="3" vertex="1">
                    <mxGeometry x="260" y="210" width="120" height="30" as="geometry"/>
                </mxCell>
                <mxCell id="44" value="Emit player&lt;br&gt;events" style="text;html=1;align=center;verticalAlign=middle;resizable=0;points=[];autosize=1;strokeColor=none;" parent="3" vertex="1">
                    <mxGeometry x="230" y="260" width="80" height="30" as="geometry"/>
                </mxCell>
                <mxCell id="45" value="Screen" style="rounded=0;whiteSpace=wrap;html=1;" parent="3" vertex="1">
                    <mxGeometry x="260" y="390" width="120" height="60" as="geometry"/>
                </mxCell>
                <mxCell id="4" value="Game Server" style="swimlane;" parent="1" vertex="1">
                    <mxGeometry x="-310" y="130" width="400" height="510" as="geometry"/>
                </mxCell>
                <mxCell id="12" style="edgeStyle=orthogonalEdgeStyle;rounded=0;orthogonalLoop=1;jettySize=auto;html=1;" parent="4" source="5" target="9" edge="1">
                    <mxGeometry relative="1" as="geometry">
                        <Array as="points">
                            <mxPoint x="130" y="250"/>
                            <mxPoint x="130" y="250"/>
                        </Array>
                    </mxGeometry>
                </mxCell>
                <mxCell id="31" style="edgeStyle=orthogonalEdgeStyle;rounded=0;orthogonalLoop=1;jettySize=auto;html=1;entryX=0.5;entryY=0;entryDx=0;entryDy=0;startArrow=none;startFill=0;" parent="4" source="5" target="30" edge="1">
                    <mxGeometry relative="1" as="geometry"/>
                </mxCell>
                <mxCell id="5" value="Game Engine&lt;br&gt;(pymunk)" style="rounded=0;whiteSpace=wrap;html=1;" parent="4" vertex="1">
                    <mxGeometry x="40" y="260" width="120" height="80" as="geometry"/>
                </mxCell>
                <mxCell id="27" style="edgeStyle=orthogonalEdgeStyle;rounded=0;orthogonalLoop=1;jettySize=auto;html=1;entryX=1;entryY=0.75;entryDx=0;entryDy=0;startArrow=none;startFill=0;" parent="4" source="7" target="9" edge="1">
                    <mxGeometry relative="1" as="geometry">
                        <Array as="points">
                            <mxPoint x="250" y="185"/>
                            <mxPoint x="250" y="185"/>
                        </Array>
                    </mxGeometry>
                </mxCell>
                <mxCell id="7" value="Net Com(server)" style="shape=process;whiteSpace=wrap;html=1;backgroundOutline=1;" parent="4" vertex="1">
                    <mxGeometry x="270" y="140" width="80" height="60" as="geometry"/>
                </mxCell>
                <mxCell id="11" style="edgeStyle=orthogonalEdgeStyle;rounded=0;orthogonalLoop=1;jettySize=auto;html=1;entryX=0.25;entryY=0;entryDx=0;entryDy=0;" parent="4" source="9" target="5" edge="1">
                    <mxGeometry relative="1" as="geometry">
                        <Array as="points">
                            <mxPoint x="70" y="220"/>
                            <mxPoint x="70" y="220"/>
                        </Array>
                    </mxGeometry>
                </mxCell>
                <mxCell id="17" style="edgeStyle=orthogonalEdgeStyle;rounded=0;orthogonalLoop=1;jettySize=auto;html=1;entryX=0;entryY=0.25;entryDx=0;entryDy=0;startArrow=none;startFill=0;" parent="4" source="9" target="7" edge="1">
                    <mxGeometry relative="1" as="geometry">
                        <Array as="points">
                            <mxPoint x="220" y="155"/>
                            <mxPoint x="220" y="155"/>
                        </Array>
                    </mxGeometry>
                </mxCell>
                <mxCell id="9" value="Server" style="rounded=0;whiteSpace=wrap;html=1;" parent="4" vertex="1">
                    <mxGeometry x="40" y="140" width="120" height="60" as="geometry"/>
                </mxCell>
                <mxCell id="10" value="Server manager" style="rounded=0;whiteSpace=wrap;html=1;" parent="4" vertex="1">
                    <mxGeometry x="40" y="40" width="100" height="60" as="geometry"/>
                </mxCell>
                <mxCell id="19" value="Local&lt;br&gt;Player database" style="shape=cylinder3;whiteSpace=wrap;html=1;boundedLbl=1;backgroundOutline=1;size=15;" parent="4" vertex="1">
                    <mxGeometry x="310" y="30" width="70" height="80" as="geometry"/>
                </mxCell>
                <mxCell id="18" value="emit server&lt;br&gt;events" style="text;html=1;align=center;verticalAlign=middle;resizable=0;points=[];autosize=1;strokeColor=none;" parent="4" vertex="1">
                    <mxGeometry x="160" y="125" width="70" height="30" as="geometry"/>
                </mxCell>
                <mxCell id="28" value="recieve client&lt;br&gt;events" style="text;html=1;align=center;verticalAlign=middle;resizable=0;points=[];autosize=1;strokeColor=none;" parent="4" vertex="1">
                    <mxGeometry x="170" y="190" width="90" height="30" as="geometry"/>
                </mxCell>
                <mxCell id="30" value="PyGame debugger" style="rounded=0;whiteSpace=wrap;html=1;" parent="4" vertex="1">
                    <mxGeometry x="40" y="390" width="120" height="60" as="geometry"/>
                </mxCell>
                <mxCell id="8" value="Player database&lt;br&gt;mongo" style="shape=cylinder3;whiteSpace=wrap;html=1;boundedLbl=1;backgroundOutline=1;size=15;" parent="1" vertex="1">
                    <mxGeometry x="160" y="10" width="110" height="140" as="geometry"/>
                </mxCell>
                <mxCell id="13" style="edgeStyle=orthogonalEdgeStyle;rounded=0;orthogonalLoop=1;jettySize=auto;html=1;startArrow=none;startFill=1;entryX=0;entryY=0.5;entryDx=0;entryDy=0;entryPerimeter=0;" parent="1" source="20" target="19" edge="1">
                    <mxGeometry relative="1" as="geometry">
                        <Array as="points"/>
                    </mxGeometry>
                </mxCell>
                <mxCell id="24" style="edgeStyle=orthogonalEdgeStyle;rounded=0;orthogonalLoop=1;jettySize=auto;html=1;entryX=0;entryY=0.5;entryDx=0;entryDy=0;entryPerimeter=0;startArrow=none;startFill=0;" parent="1" source="20" target="8" edge="1">
                    <mxGeometry relative="1" as="geometry">
                        <Array as="points">
                            <mxPoint x="-60" y="80"/>
                        </Array>
                    </mxGeometry>
                </mxCell>
                <mxCell id="20" value="use local" style="rhombus;whiteSpace=wrap;html=1;" parent="1" vertex="1">
                    <mxGeometry x="-100" y="180" width="80" height="40" as="geometry"/>
                </mxCell>
                <mxCell id="21" value="" style="edgeStyle=orthogonalEdgeStyle;rounded=0;orthogonalLoop=1;jettySize=auto;html=1;startArrow=classic;startFill=1;endArrow=none;" parent="1" source="10" target="20" edge="1">
                    <mxGeometry relative="1" as="geometry">
                        <mxPoint x="-150" y="200" as="sourcePoint"/>
                        <mxPoint x="160" y="80" as="targetPoint"/>
                        <Array as="points">
                            <mxPoint x="-60" y="200"/>
                        </Array>
                    </mxGeometry>
                </mxCell>
                <mxCell id="22" value="Player scores" style="edgeLabel;html=1;align=center;verticalAlign=middle;resizable=0;points=[];" parent="21" vertex="1" connectable="0">
                    <mxGeometry x="-0.4623" y="1" relative="1" as="geometry">
                        <mxPoint x="21" y="-19" as="offset"/>
                    </mxGeometry>
                </mxCell>
                <mxCell id="34" style="edgeStyle=orthogonalEdgeStyle;rounded=0;orthogonalLoop=1;jettySize=auto;html=1;entryX=0;entryY=0.5;entryDx=0;entryDy=0;startArrow=classic;startFill=1;" parent="1" source="25" target="33" edge="1">
                    <mxGeometry relative="1" as="geometry"/>
                </mxCell>
                <mxCell id="25" value="The Inernet" style="shape=cube;whiteSpace=wrap;html=1;boundedLbl=1;backgroundOutline=1;darkOpacity=0.05;darkOpacity2=0.1;" parent="1" vertex="1">
                    <mxGeometry x="180" y="240" width="160" height="140" as="geometry"/>
                </mxCell>
                <mxCell id="26" style="edgeStyle=orthogonalEdgeStyle;rounded=0;orthogonalLoop=1;jettySize=auto;html=1;entryX=0;entryY=0;entryDx=0;entryDy=60;entryPerimeter=0;startArrow=classic;startFill=1;" parent="1" source="7" target="25" edge="1">
                    <mxGeometry relative="1" as="geometry"/>
                </mxCell>
            </root>
        </mxGraphModel>
    </diagram>
</mxfile>